# xmcd
#
# Track frame offsets:
#	150
#	48729
#	84084
#	160123
#	177354
#	211516
#	274384
#	310793
#
# Disc length: 4461 seconds
#
# Revision: 1
# Processed by: cddbd v1.5.2PL0 Copyright (c) Steve Scherf et al.
# Submitted via: audiograbber 1.83.01
#
DISCID=61116b08
DTITLE=Grateful Dead - 78-01-22 McArthur Court, Uni of Oregon, Eugene OR
DYEAR=1900
DGENRE=
TTITLE0=Terrapin Station
TTITLE1=Drums
TTITLE2=The Other One
TTITLE3=Jerry Solo
TTITLE4=St Stephen
TTITLE5=Not Fade Away
TTITLE6=Around and Around
TTITLE7=US Blues
EXTD=
EXTT0=
EXTT1=
EXTT2=
EXTT3=
EXTT4=
EXTT5=
EXTT6=
EXTT7=
PLAYORDER=
